<svg xmlns="http://www.w3.org/2000/svg" xmlns:xlink="http://www.w3.org/1999/xlink" width="800" zoomAndPan="magnify" viewBox="0 0 600 179.999997" height="240" preserveAspectRatio="xMidYMid meet" version="1.0"><defs><g/><clipPath id="068620a155"><path d="M 72.097656 0 L 600 0 L 600 180 L 72.097656 180 Z M 72.097656 0 " clip-rule="nonzero"/></clipPath><clipPath id="f503ce41ad"><path d="M 24 35.566406 L 119.992188 35.566406 L 119.992188 142 L 24 142 Z M 24 35.566406 " clip-rule="nonzero"/></clipPath><clipPath id="52bd08b845"><path d="M 90 130 L 101 130 L 101 144.316406 L 90 144.316406 Z M 90 130 " clip-rule="nonzero"/></clipPath><clipPath id="04d6a074d2"><path d="M 43 130 L 54 130 L 54 144.316406 L 43 144.316406 Z M 43 130 " clip-rule="nonzero"/></clipPath></defs><rect x="-60" width="720" fill="#ffffff" y="-18" height="215.999996" fill-opacity="1"/><rect x="-60" width="720" fill="#ff4f4e" y="-18" height="215.999996" fill-opacity="1"/><g clip-path="url(#068620a155)"><path fill="#5d9bf8" d="M 72.097656 -6.136719 L 600.105469 -6.136719 L 600.105469 186.136719 L 72.097656 186.136719 Z M 72.097656 -6.136719 " fill-opacity="1" fill-rule="nonzero"/></g><g clip-path="url(#f503ce41ad)"><path fill="#333333" d="M 26.988281 37.867188 L 24.035156 37.902344 L 24.023438 49.195312 L 26.269531 49.195312 L 26.277344 61.601562 L 29.09375 61.652344 L 29.128906 68.246094 L 29.175781 76.464844 L 29.914062 76.515625 L 29.824219 87.71875 L 28.140625 87.71875 L 28.238281 95.050781 L 32.035156 95.160156 L 31.902344 114.378906 L 31.273438 114.378906 L 31.273438 117.179688 L 31.800781 117.179688 L 31.800781 119.261719 L 36.191406 119.261719 L 36.191406 121.128906 L 38.84375 121.128906 L 38.84375 124.007812 L 42.984375 124.007812 L 42.984375 127.304688 L 48.183594 127.304688 L 48.191406 129.53125 L 51.90625 129.574219 L 51.867188 133.351562 L 56.367188 133.386719 L 56.386719 134.589844 L 60.140625 134.527344 L 60.140625 136.726562 L 62.433594 136.699219 L 62.433594 138.066406 L 64.675781 138.066406 L 64.6875 139.003906 L 68.90625 139.015625 L 68.933594 141.253906 L 71.851562 141.269531 L 72.109375 141.269531 L 75.023438 141.253906 L 75.050781 139.015625 L 79.269531 139.003906 L 79.285156 138.066406 L 81.523438 138.066406 L 81.523438 136.699219 L 83.820312 136.726562 L 83.820312 134.527344 L 87.570312 134.589844 L 87.59375 133.386719 L 92.089844 133.351562 L 92.050781 129.574219 L 95.765625 129.53125 L 95.773438 127.304688 L 100.972656 127.304688 L 100.972656 124.007812 L 105.113281 124.007812 L 105.113281 121.128906 L 107.765625 121.128906 L 107.765625 119.261719 L 112.15625 119.261719 L 112.15625 117.179688 L 112.683594 117.179688 L 112.683594 114.378906 L 112.054688 114.378906 L 111.921875 95.160156 L 115.71875 95.050781 L 115.816406 87.71875 L 114.132812 87.71875 L 114.042969 76.515625 L 114.78125 76.464844 L 114.828125 68.246094 L 114.863281 61.652344 L 117.679688 61.601562 L 117.6875 49.195312 L 119.933594 49.195312 L 119.921875 37.902344 L 116.96875 37.867188 L 116.917969 35.617188 L 108.484375 35.566406 L 108.484375 38.132812 L 105.671875 38.144531 L 105.660156 40.09375 L 102.835938 40.074219 L 102.894531 42.292969 L 100.234375 42.238281 L 100.222656 44.699219 L 97.722656 44.738281 L 97.695312 46.675781 L 95.195312 46.648438 L 95.203125 48.886719 L 92.8125 48.910156 L 92.800781 51.082031 L 89.902344 51.082031 L 89.875 55.480469 L 87.15625 55.480469 L 87.15625 57.695312 L 73.191406 57.660156 L 72.109375 57.652344 L 71.847656 57.652344 L 70.761719 57.660156 L 56.800781 57.695312 L 56.800781 55.480469 L 54.082031 55.480469 L 54.054688 51.082031 L 51.15625 51.082031 L 51.144531 48.910156 L 48.753906 48.886719 L 48.761719 46.648438 L 46.261719 46.675781 L 46.230469 44.738281 L 43.734375 44.699219 L 43.722656 42.238281 L 41.0625 42.292969 L 41.117188 40.074219 L 38.296875 40.09375 L 38.285156 38.144531 L 35.472656 38.132812 L 35.472656 35.566406 L 27.039062 35.617188 Z M 26.988281 37.867188 " fill-opacity="1" fill-rule="nonzero"/></g><path fill="#f9f9f9" d="M 64.75 87.726562 L 64.75 91.285156 L 68.515625 91.285156 L 68.542969 93.117188 L 68.554688 96.363281 L 68.542969 97.777344 L 75.417969 97.777344 L 75.402344 96.363281 L 75.417969 93.117188 L 75.441406 91.285156 L 79.207031 91.285156 L 79.207031 87.726562 L 112.007812 87.726562 L 111.894531 94.324219 L 108.46875 94.355469 L 108.488281 113.117188 L 109.214844 113.117188 L 109.214844 114.953125 L 110.488281 114.945312 L 110.488281 116.464844 L 106.429688 116.464844 L 106.429688 118.328125 L 103.292969 118.328125 L 103.292969 121.386719 L 99.386719 121.386719 L 99.386719 123.863281 L 95.5 123.855469 L 95.5 126.882812 L 90.40625 126.882812 L 90.429688 130.421875 L 87.742188 130.433594 L 87.785156 132.121094 L 83.8125 132.121094 L 83.820312 134.179688 L 81.070312 134.15625 L 81.054688 135.175781 L 78.210938 135.175781 L 78.210938 136.726562 L 74.804688 136.742188 L 74.773438 138.195312 L 69.183594 138.195312 L 69.152344 136.742188 L 65.746094 136.726562 L 65.746094 135.175781 L 62.902344 135.175781 L 62.886719 134.15625 L 60.136719 134.179688 L 60.144531 132.121094 L 56.171875 132.121094 L 56.214844 130.433594 L 53.527344 130.421875 L 53.550781 126.882812 L 48.457031 126.882812 L 48.457031 123.855469 L 44.570312 123.863281 L 44.570312 121.386719 L 40.664062 121.386719 L 40.664062 118.328125 L 37.527344 118.328125 L 37.527344 116.464844 L 33.46875 116.464844 L 33.46875 114.945312 L 34.742188 114.953125 L 34.742188 113.117188 L 35.46875 113.117188 L 35.488281 94.355469 L 32.0625 94.324219 L 31.949219 87.726562 Z M 64.75 87.726562 " fill-opacity="1" fill-rule="nonzero"/><path fill="#333333" d="M 110.738281 129.429688 L 110.738281 128.15625 L 108.542969 128.15625 L 108.542969 127.339844 L 106.175781 127.339844 L 106.175781 125.195312 L 103.824219 125.195312 L 103.824219 123.929688 L 102.144531 123.929688 L 102.144531 122.179688 L 105.007812 122.179688 L 105.007812 123.445312 L 106.691406 123.445312 L 106.691406 124.59375 L 109.039062 124.59375 L 109.039062 126.410156 L 111.40625 126.410156 L 111.40625 127.683594 L 113.601562 127.683594 L 113.601562 128.972656 L 115.933594 128.972656 L 115.933594 130.71875 L 113.070312 130.71875 L 113.070312 129.429688 Z M 110.738281 129.429688 " fill-opacity="1" fill-rule="nonzero"/><path fill="#333333" d="M 105.136719 137.359375 L 105.136719 135.550781 L 102.1875 135.550781 L 102.1875 134.390625 L 100.300781 134.390625 L 100.300781 131.339844 L 97.179688 131.339844 L 97.179688 129.542969 L 95.246094 129.542969 L 95.246094 127.0625 L 98.542969 127.0625 L 98.542969 128.855469 L 100.894531 128.855469 L 100.894531 130.488281 L 102.761719 130.488281 L 102.761719 133.066406 L 105.90625 133.066406 L 105.90625 134.875 L 108.433594 134.875 L 108.433594 136.707031 L 111.117188 136.707031 L 111.117188 139.191406 L 107.820312 139.191406 L 107.820312 137.359375 Z M 105.136719 137.359375 " fill-opacity="1" fill-rule="nonzero"/><g clip-path="url(#52bd08b845)"><path fill="#333333" d="M 96.683594 142.226562 L 96.683594 140.167969 L 95.207031 140.167969 L 95.207031 138.84375 L 93.617188 138.84375 L 93.617188 135.371094 L 92.035156 135.371094 L 92.035156 133.320312 L 90.90625 133.320312 L 90.90625 130.492188 L 92.832031 130.492188 L 92.832031 132.539062 L 93.964844 132.539062 L 93.964844 134.398438 L 95.542969 134.398438 L 95.542969 137.335938 L 97.136719 137.335938 L 97.136719 139.398438 L 98.613281 139.398438 L 98.613281 141.488281 L 100.179688 141.488281 L 100.179688 144.316406 L 98.253906 144.316406 L 98.253906 142.226562 Z M 96.683594 142.226562 " fill-opacity="1" fill-rule="nonzero"/></g><path fill="#333333" d="M 76.199219 125.035156 L 76.199219 126.296875 L 71.847656 126.257812 L 71.847656 128.089844 L 77.742188 128.039062 L 77.75 126.976562 L 79.078125 126.976562 L 79.078125 125.667969 L 80.375 125.667969 L 80.375 123.722656 L 78.234375 123.722656 L 78.234375 125.035156 Z M 76.199219 125.035156 " fill-opacity="1" fill-rule="nonzero"/><path fill="#333333" d="M 72.871094 123.652344 L 72.914062 119.78125 L 75.023438 119.695312 L 75.023438 116.210938 L 71.847656 116.207031 L 71.847656 123.644531 Z M 72.871094 123.652344 " fill-opacity="1" fill-rule="nonzero"/><path fill="#f9f9f9" d="M 114.96875 40.820312 L 117.480469 40.820312 L 117.480469 48.777344 L 114.976562 48.777344 L 114.9375 59.976562 L 111.847656 59.964844 L 111.832031 68.257812 L 111.832031 76.417969 L 109.53125 76.417969 L 109.53125 81.023438 L 106.738281 81.015625 L 106.707031 76.515625 L 100.957031 76.414062 L 100.957031 72.851562 L 97.953125 72.851562 L 93.980469 72.71875 L 93.007812 72.585938 L 93.007812 70.550781 L 87.152344 70.550781 L 87.152344 65.316406 L 90.078125 65.316406 L 90.078125 62.804688 L 92.160156 62.804688 L 92.125 55.574219 L 93.285156 55.5625 L 93.300781 53.09375 L 95.332031 53.074219 L 95.320312 49.609375 L 97.75 49.566406 L 97.75 48.164062 L 100.976562 48.101562 L 100.992188 46.089844 L 102.757812 46.042969 L 102.804688 43.117188 L 105.761719 43.117188 L 105.761719 40.8125 L 108.878906 40.785156 L 108.855469 38.511719 L 114.960938 38.523438 Z M 114.96875 40.820312 " fill-opacity="1" fill-rule="nonzero"/><path fill="#333333" d="M 33.21875 129.429688 L 33.21875 128.15625 L 35.414062 128.15625 L 35.414062 127.339844 L 37.78125 127.339844 L 37.78125 125.195312 L 40.132812 125.195312 L 40.132812 123.929688 L 41.8125 123.929688 L 41.8125 122.179688 L 38.949219 122.179688 L 38.949219 123.445312 L 37.269531 123.445312 L 37.269531 124.59375 L 34.917969 124.59375 L 34.917969 126.410156 L 32.550781 126.410156 L 32.550781 127.683594 L 30.355469 127.683594 L 30.355469 128.972656 L 28.023438 128.972656 L 28.023438 130.71875 L 30.886719 130.71875 L 30.886719 129.429688 Z M 33.21875 129.429688 " fill-opacity="1" fill-rule="nonzero"/><path fill="#333333" d="M 38.820312 137.359375 L 38.820312 135.550781 L 41.769531 135.550781 L 41.769531 134.390625 L 43.65625 134.390625 L 43.65625 131.339844 L 46.777344 131.339844 L 46.777344 129.542969 L 48.714844 129.542969 L 48.714844 127.0625 L 45.414062 127.0625 L 45.414062 128.855469 L 43.0625 128.855469 L 43.0625 130.488281 L 41.195312 130.488281 L 41.195312 133.066406 L 38.050781 133.066406 L 38.050781 134.875 L 35.523438 134.875 L 35.523438 136.707031 L 32.839844 136.707031 L 32.839844 139.191406 L 36.136719 139.191406 L 36.136719 137.359375 Z M 38.820312 137.359375 " fill-opacity="1" fill-rule="nonzero"/><g clip-path="url(#04d6a074d2)"><path fill="#333333" d="M 47.273438 142.226562 L 47.273438 140.167969 L 48.75 140.167969 L 48.75 138.84375 L 50.339844 138.84375 L 50.339844 135.371094 L 51.921875 135.371094 L 51.921875 133.320312 L 53.050781 133.320312 L 53.050781 130.492188 L 51.125 130.492188 L 51.125 132.539062 L 49.992188 132.539062 L 49.992188 134.398438 L 48.414062 134.398438 L 48.414062 137.335938 L 46.820312 137.335938 L 46.820312 139.398438 L 45.34375 139.398438 L 45.34375 141.488281 L 43.777344 141.488281 L 43.777344 144.316406 L 45.703125 144.316406 L 45.703125 142.226562 Z M 47.273438 142.226562 " fill-opacity="1" fill-rule="nonzero"/></g><path fill="#333333" d="M 72.109375 128.089844 L 66.214844 128.039062 L 66.199219 126.308594 L 72.109375 126.257812 Z M 72.109375 128.089844 " fill-opacity="1" fill-rule="nonzero"/><path fill="#333333" d="M 71.085938 123.652344 L 71.039062 119.78125 L 68.933594 119.695312 L 68.933594 116.210938 L 72.109375 116.207031 L 72.109375 123.644531 Z M 71.085938 123.652344 " fill-opacity="1" fill-rule="nonzero"/><path fill="#f9f9f9" d="M 28.988281 40.820312 L 26.480469 40.820312 L 26.480469 48.777344 L 28.980469 48.777344 L 29.019531 59.976562 L 32.113281 59.964844 L 32.125 68.257812 L 32.125 76.417969 L 34.425781 76.417969 L 34.425781 81.023438 L 37.21875 81.015625 L 37.25 76.515625 L 43 76.414062 L 43 72.851562 L 46.003906 72.851562 L 49.980469 72.71875 L 50.949219 72.585938 L 50.949219 70.550781 L 56.804688 70.550781 L 56.804688 65.316406 L 53.878906 65.316406 L 53.878906 62.804688 L 51.796875 62.804688 L 51.832031 55.574219 L 50.671875 55.5625 L 50.65625 53.09375 L 48.625 53.074219 L 48.636719 49.609375 L 46.207031 49.566406 L 46.207031 48.164062 L 42.984375 48.101562 L 42.964844 46.089844 L 41.199219 46.042969 L 41.152344 43.117188 L 38.199219 43.117188 L 38.199219 40.8125 L 35.082031 40.785156 L 35.105469 38.511719 L 29 38.523438 Z M 28.988281 40.820312 " fill-opacity="1" fill-rule="nonzero"/><path fill="#333333" d="M 64.988281 106.796875 L 65.03125 115.042969 L 38.21875 115.042969 L 38.21875 93.289062 L 64.917969 93.289062 L 64.933594 95.921875 Z M 64.988281 106.796875 " fill-opacity="1" fill-rule="nonzero"/><path fill="#469dff" d="M 62.273438 106.261719 L 62.304688 112.832031 L 40.945312 112.832031 L 40.945312 95.5 L 62.214844 95.5 L 62.230469 97.597656 Z M 62.273438 106.261719 " fill-opacity="1" fill-rule="nonzero"/><path fill="#98c9ff" d="M 56.117188 97.058594 L 56.117188 99.96875 L 53.183594 99.96875 L 53.183594 101.328125 L 49.832031 101.328125 L 49.832031 104.335938 L 46.976562 104.335938 L 46.976562 106.714844 L 43.289062 106.714844 L 43.289062 109.515625 L 40.941406 109.515625 L 40.941406 112.832031 L 45.332031 112.832031 L 45.332031 110.945312 L 47.984375 110.945312 L 47.984375 108.570312 L 51.671875 108.570312 L 51.671875 105.5625 L 54.527344 105.5625 L 54.527344 104.203125 L 57.878906 104.203125 L 57.878906 101.292969 L 60.8125 101.292969 L 60.8125 98.734375 L 62.234375 98.734375 L 62.226562 97.597656 L 62.214844 95.503906 L 58.433594 95.5 L 58.433594 97.058594 Z M 56.117188 97.058594 " fill-opacity="1" fill-rule="nonzero"/><path fill="#333333" d="M 78.96875 106.796875 L 78.925781 115.042969 L 105.738281 115.042969 L 105.738281 93.289062 L 79.039062 93.289062 L 79.023438 95.921875 Z M 78.96875 106.796875 " fill-opacity="1" fill-rule="nonzero"/><path fill="#ff4f4f" d="M 81.683594 106.261719 L 81.652344 112.832031 L 103.011719 112.832031 L 103.011719 95.5 L 81.742188 95.5 L 81.726562 97.597656 Z M 81.683594 106.261719 " fill-opacity="1" fill-rule="nonzero"/><path fill="#ff9e9e" d="M 96.859375 97.058594 L 96.859375 99.96875 L 93.925781 99.96875 L 93.925781 101.328125 L 90.574219 101.328125 L 90.574219 104.335938 L 87.71875 104.335938 L 87.71875 106.714844 L 84.03125 106.714844 L 84.03125 109.515625 L 81.6875 109.515625 L 81.6875 112.832031 L 86.078125 112.832031 L 86.078125 110.945312 L 88.730469 110.945312 L 88.730469 108.570312 L 92.417969 108.570312 L 92.417969 105.5625 L 95.273438 105.5625 L 95.273438 104.203125 L 98.625 104.203125 L 98.625 101.292969 L 101.558594 101.292969 L 101.558594 98.734375 L 102.976562 98.734375 L 102.96875 97.597656 L 102.957031 95.5 L 99.175781 95.5 L 99.175781 97.058594 Z M 96.859375 97.058594 " fill-opacity="1" fill-rule="nonzero"/><path fill="#333333" d="M 81.695312 122.691406 L 81.695312 124.417969 L 82.960938 124.417969 L 82.960938 122.050781 L 81.980469 122.050781 L 81.980469 121.449219 L 79.613281 121.449219 L 79.613281 122.691406 Z M 81.695312 122.691406 " fill-opacity="1" fill-rule="nonzero"/><g fill="#302828" fill-opacity="1"><g transform="translate(166.086939, 108.479012)"><g><path d="M 40.3125 0 L 40.3125 -4.609375 L 44.859375 -4.609375 L 44.859375 0 Z M 40.3125 -5.25 L 40.3125 -9.859375 L 44.859375 -9.859375 L 44.859375 -5.25 Z M 40.3125 -10.5 L 40.3125 -15.109375 L 44.859375 -15.109375 L 44.859375 -10.5 Z M 40.3125 -15.75 L 40.3125 -20.359375 L 44.859375 -20.359375 L 44.859375 -15.75 Z M 40.3125 -20.953125 L 40.3125 -25.546875 L 44.859375 -25.546875 L 44.859375 -20.953125 Z M 40.3125 -26.203125 L 40.3125 -30.8125 L 44.859375 -30.8125 L 44.859375 -26.203125 Z M 40.3125 -31.453125 L 40.3125 -36.0625 L 44.859375 -36.0625 L 44.859375 -31.453125 Z M 40.3125 -36.703125 L 40.3125 -41.3125 L 44.859375 -41.3125 L 44.859375 -36.703125 Z M 35.109375 0 L 35.109375 -4.609375 L 39.65625 -4.609375 L 39.65625 0 Z M 35.109375 -5.25 L 35.109375 -9.859375 L 39.65625 -9.859375 L 39.65625 -5.25 Z M 35.109375 -10.5 L 35.109375 -15.109375 L 39.65625 -15.109375 L 39.65625 -10.5 Z M 35.109375 -15.75 L 35.109375 -20.359375 L 39.65625 -20.359375 L 39.65625 -15.75 Z M 35.109375 -20.953125 L 35.109375 -25.546875 L 39.65625 -25.546875 L 39.65625 -20.953125 Z M 35.109375 -26.203125 L 35.109375 -30.8125 L 39.65625 -30.8125 L 39.65625 -26.203125 Z M 35.109375 -31.453125 L 35.109375 -36.0625 L 39.65625 -36.0625 L 39.65625 -31.453125 Z M 35.109375 -36.703125 L 35.109375 -41.3125 L 39.65625 -41.3125 L 39.65625 -36.703125 Z M 29.921875 -26.203125 L 29.921875 -30.8125 L 34.46875 -30.8125 L 34.46875 -26.203125 Z M 29.921875 -31.453125 L 29.921875 -36.0625 L 34.46875 -36.0625 L 34.46875 -31.453125 Z M 24.78125 -20.953125 L 24.78125 -25.546875 L 29.328125 -25.546875 L 29.328125 -20.953125 Z M 24.78125 -26.203125 L 24.78125 -30.8125 L 29.328125 -30.8125 L 29.328125 -26.203125 Z M 19.59375 -20.953125 L 19.59375 -25.546875 L 24.140625 -25.546875 L 24.140625 -20.953125 Z M 19.59375 -26.203125 L 19.59375 -30.8125 L 24.140625 -30.8125 L 24.140625 -26.203125 Z M 14.40625 -26.203125 L 14.40625 -30.8125 L 18.9375 -30.8125 L 18.9375 -26.203125 Z M 14.40625 -31.453125 L 14.40625 -36.0625 L 18.9375 -36.0625 L 18.9375 -31.453125 Z M 9.265625 0 L 9.265625 -4.609375 L 13.8125 -4.609375 L 13.8125 0 Z M 9.265625 -5.25 L 9.265625 -9.859375 L 13.8125 -9.859375 L 13.8125 -5.25 Z M 9.265625 -10.5 L 9.265625 -15.109375 L 13.8125 -15.109375 L 13.8125 -10.5 Z M 9.265625 -15.75 L 9.265625 -20.359375 L 13.8125 -20.359375 L 13.8125 -15.75 Z M 9.265625 -20.953125 L 9.265625 -25.546875 L 13.8125 -25.546875 L 13.8125 -20.953125 Z M 9.265625 -26.203125 L 9.265625 -30.8125 L 13.8125 -30.8125 L 13.8125 -26.203125 Z M 9.265625 -31.453125 L 9.265625 -36.0625 L 13.8125 -36.0625 L 13.8125 -31.453125 Z M 9.265625 -36.703125 L 9.265625 -41.3125 L 13.8125 -41.3125 L 13.8125 -36.703125 Z M 4.078125 0 L 4.078125 -4.609375 L 8.609375 -4.609375 L 8.609375 0 Z M 4.078125 -5.25 L 4.078125 -9.859375 L 8.609375 -9.859375 L 8.609375 -5.25 Z M 4.078125 -10.5 L 4.078125 -15.109375 L 8.609375 -15.109375 L 8.609375 -10.5 Z M 4.078125 -15.75 L 4.078125 -20.359375 L 8.609375 -20.359375 L 8.609375 -15.75 Z M 4.078125 -20.953125 L 4.078125 -25.546875 L 8.609375 -25.546875 L 8.609375 -20.953125 Z M 4.078125 -26.203125 L 4.078125 -30.8125 L 8.609375 -30.8125 L 8.609375 -26.203125 Z M 4.078125 -31.453125 L 4.078125 -36.0625 L 8.609375 -36.0625 L 8.609375 -31.453125 Z M 4.078125 -36.703125 L 4.078125 -41.3125 L 8.609375 -41.3125 L 8.609375 -36.703125 Z M 4.078125 -36.703125 "/></g></g></g><g fill="#302828" fill-opacity="1"><g transform="translate(215.77245, 108.479012)"><g><path d="M 30.328125 -0.296875 L 30.328125 -4.890625 L 34.875 -4.890625 L 34.875 -0.296875 Z M 30.328125 -5.546875 L 30.328125 -10.15625 L 34.875 -10.15625 L 34.875 -5.546875 Z M 30.328125 -10.796875 L 30.328125 -15.40625 L 34.875 -15.40625 L 34.875 -10.796875 Z M 30.328125 -16.046875 L 30.328125 -20.65625 L 34.875 -20.65625 L 34.875 -16.046875 Z M 30.328125 -21.296875 L 30.328125 -25.90625 L 34.875 -25.90625 L 34.875 -21.296875 Z M 30.328125 -26.5625 L 30.328125 -31.15625 L 34.875 -31.15625 L 34.875 -26.5625 Z M 30.328125 -31.75 L 30.328125 -36.40625 L 34.875 -36.40625 L 34.875 -31.75 Z M 25.203125 -0.296875 L 25.203125 -4.890625 L 29.75 -4.890625 L 29.75 -0.296875 Z M 25.203125 -5.546875 L 25.203125 -10.15625 L 29.75 -10.15625 L 29.75 -5.546875 Z M 25.203125 -10.796875 L 25.203125 -15.40625 L 29.75 -15.40625 L 29.75 -10.796875 Z M 25.203125 -16.046875 L 25.203125 -20.65625 L 29.75 -20.65625 L 29.75 -16.046875 Z M 25.203125 -21.296875 L 25.203125 -25.90625 L 29.75 -25.90625 L 29.75 -21.296875 Z M 25.203125 -26.5625 L 25.203125 -31.15625 L 29.75 -31.15625 L 29.75 -26.5625 Z M 25.203125 -31.75 L 25.203125 -36.40625 L 29.75 -36.40625 L 29.75 -31.75 Z M 25.203125 -37 L 25.203125 -41.609375 L 29.75 -41.609375 L 29.75 -37 Z M 20 -16.046875 L 20 -20.65625 L 24.546875 -20.65625 L 24.546875 -16.046875 Z M 20 -31.75 L 20 -36.40625 L 24.546875 -36.40625 L 24.546875 -31.75 Z M 20 -37 L 20 -41.609375 L 24.546875 -41.609375 L 24.546875 -37 Z M 14.8125 -16.046875 L 14.8125 -20.65625 L 19.359375 -20.65625 L 19.359375 -16.046875 Z M 14.8125 -31.75 L 14.8125 -36.40625 L 19.359375 -36.40625 L 19.359375 -31.75 Z M 14.8125 -37 L 14.8125 -41.609375 L 19.359375 -41.609375 L 19.359375 -37 Z M 9.671875 -0.296875 L 9.671875 -4.890625 L 14.21875 -4.890625 L 14.21875 -0.296875 Z M 9.671875 -5.546875 L 9.671875 -10.15625 L 14.21875 -10.15625 L 14.21875 -5.546875 Z M 9.671875 -10.796875 L 9.671875 -15.40625 L 14.21875 -15.40625 L 14.21875 -10.796875 Z M 9.671875 -16.046875 L 9.671875 -20.65625 L 14.21875 -20.65625 L 14.21875 -16.046875 Z M 9.671875 -21.296875 L 9.671875 -25.90625 L 14.21875 -25.90625 L 14.21875 -21.296875 Z M 9.671875 -26.5625 L 9.671875 -31.15625 L 14.21875 -31.15625 L 14.21875 -26.5625 Z M 9.671875 -31.75 L 9.671875 -36.40625 L 14.21875 -36.40625 L 14.21875 -31.75 Z M 9.671875 -37 L 9.671875 -41.609375 L 14.21875 -41.609375 L 14.21875 -37 Z M 4.484375 -0.296875 L 4.484375 -4.890625 L 9.03125 -4.890625 L 9.03125 -0.296875 Z M 4.484375 -5.546875 L 4.484375 -10.15625 L 9.03125 -10.15625 L 9.03125 -5.546875 Z M 4.484375 -10.796875 L 4.484375 -15.40625 L 9.03125 -15.40625 L 9.03125 -10.796875 Z M 4.484375 -16.046875 L 4.484375 -20.65625 L 9.03125 -20.65625 L 9.03125 -16.046875 Z M 4.484375 -21.296875 L 4.484375 -25.90625 L 9.03125 -25.90625 L 9.03125 -21.296875 Z M 4.484375 -26.5625 L 4.484375 -31.15625 L 9.03125 -31.15625 L 9.03125 -26.5625 Z M 4.484375 -31.75 L 4.484375 -36.40625 L 9.03125 -36.40625 L 9.03125 -31.75 Z M 4.484375 -31.75 "/></g></g></g><g fill="#302828" fill-opacity="1"><g transform="translate(254.305269, 108.479012)"><g><path d="M 35.234375 -5.25 L 35.234375 -9.859375 L 39.78125 -9.859375 L 39.78125 -5.25 Z M 35.234375 -10.5 L 35.234375 -15.109375 L 39.78125 -15.109375 L 39.78125 -10.5 Z M 35.234375 -15.75 L 35.234375 -20.359375 L 39.78125 -20.359375 L 39.78125 -15.75 Z M 35.234375 -20.953125 L 35.234375 -25.546875 L 39.78125 -25.546875 L 39.78125 -20.953125 Z M 35.234375 -26.203125 L 35.234375 -30.8125 L 39.78125 -30.8125 L 39.78125 -26.203125 Z M 35.234375 -31.453125 L 35.234375 -36.0625 L 39.78125 -36.0625 L 39.78125 -31.453125 Z M 30.03125 0 L 30.03125 -4.609375 L 34.578125 -4.609375 L 34.578125 0 Z M 30.03125 -5.25 L 30.03125 -9.859375 L 34.578125 -9.859375 L 34.578125 -5.25 Z M 30.03125 -10.5 L 30.03125 -15.109375 L 34.578125 -15.109375 L 34.578125 -10.5 Z M 30.03125 -15.75 L 30.03125 -20.359375 L 34.578125 -20.359375 L 34.578125 -15.75 Z M 30.03125 -20.953125 L 30.03125 -25.546875 L 34.578125 -25.546875 L 34.578125 -20.953125 Z M 30.03125 -26.203125 L 30.03125 -30.8125 L 34.578125 -30.8125 L 34.578125 -26.203125 Z M 30.03125 -31.453125 L 30.03125 -36.0625 L 34.578125 -36.0625 L 34.578125 -31.453125 Z M 30.03125 -36.703125 L 30.03125 -41.3125 L 34.578125 -41.3125 L 34.578125 -36.703125 Z M 24.90625 0 L 24.90625 -4.609375 L 29.453125 -4.609375 L 29.453125 0 Z M 24.90625 -36.703125 L 24.90625 -41.3125 L 29.453125 -41.3125 L 29.453125 -36.703125 Z M 19.71875 0 L 19.71875 -4.609375 L 24.25 -4.609375 L 24.25 0 Z M 19.71875 -36.703125 L 19.71875 -41.3125 L 24.25 -41.3125 L 24.25 -36.703125 Z M 14.515625 0 L 14.515625 -4.609375 L 19.0625 -4.609375 L 19.0625 0 Z M 14.515625 -5.25 L 14.515625 -9.859375 L 19.0625 -9.859375 L 19.0625 -5.25 Z M 14.515625 -10.5 L 14.515625 -15.109375 L 19.0625 -15.109375 L 19.0625 -10.5 Z M 14.515625 -15.75 L 14.515625 -20.359375 L 19.0625 -20.359375 L 19.0625 -15.75 Z M 14.515625 -20.953125 L 14.515625 -25.546875 L 19.0625 -25.546875 L 19.0625 -20.953125 Z M 14.515625 -26.203125 L 14.515625 -30.8125 L 19.0625 -30.8125 L 19.0625 -26.203125 Z M 14.515625 -31.453125 L 14.515625 -36.0625 L 19.0625 -36.0625 L 19.0625 -31.453125 Z M 14.515625 -36.703125 L 14.515625 -41.3125 L 19.0625 -41.3125 L 19.0625 -36.703125 Z M 9.390625 0 L 9.390625 -4.609375 L 13.921875 -4.609375 L 13.921875 0 Z M 9.390625 -5.25 L 9.390625 -9.859375 L 13.921875 -9.859375 L 13.921875 -5.25 Z M 9.390625 -10.5 L 9.390625 -15.109375 L 13.921875 -15.109375 L 13.921875 -10.5 Z M 9.390625 -15.75 L 9.390625 -20.359375 L 13.921875 -20.359375 L 13.921875 -15.75 Z M 9.390625 -20.953125 L 9.390625 -25.546875 L 13.921875 -25.546875 L 13.921875 -20.953125 Z M 9.390625 -26.203125 L 9.390625 -30.8125 L 13.921875 -30.8125 L 13.921875 -26.203125 Z M 9.390625 -31.453125 L 9.390625 -36.0625 L 13.921875 -36.0625 L 13.921875 -31.453125 Z M 9.390625 -36.703125 L 9.390625 -41.3125 L 13.921875 -41.3125 L 13.921875 -36.703125 Z M 4.1875 0 L 4.1875 -4.609375 L 8.734375 -4.609375 L 8.734375 0 Z M 4.1875 -36.703125 L 4.1875 -41.3125 L 8.734375 -41.3125 L 8.734375 -36.703125 Z M 4.1875 -36.703125 "/></g></g></g><g fill="#302828" fill-opacity="1"><g transform="translate(298.207908, 108.479012)"><g/></g></g><g fill="#302828" fill-opacity="1"><g transform="translate(330.721821, 108.479012)"><g><path d="M 34 -20.953125 L 34 -25.546875 L 38.53125 -25.546875 L 38.53125 -20.953125 Z M 34 -26.203125 L 34 -30.8125 L 38.53125 -30.8125 L 38.53125 -26.203125 Z M 34 -31.453125 L 34 -36.0625 L 38.53125 -36.0625 L 38.53125 -31.453125 Z M 28.796875 -15.75 L 28.796875 -20.359375 L 33.34375 -20.359375 L 33.34375 -15.75 Z M 28.796875 -20.953125 L 28.796875 -25.546875 L 33.34375 -25.546875 L 33.34375 -20.953125 Z M 28.796875 -26.203125 L 28.796875 -30.8125 L 33.34375 -30.8125 L 33.34375 -26.203125 Z M 28.796875 -31.453125 L 28.796875 -36.0625 L 33.34375 -36.0625 L 33.34375 -31.453125 Z M 28.796875 -36.703125 L 28.796875 -41.3125 L 33.34375 -41.3125 L 33.34375 -36.703125 Z M 23.671875 -15.75 L 23.671875 -20.359375 L 28.203125 -20.359375 L 28.203125 -15.75 Z M 23.671875 -20.953125 L 23.671875 -25.546875 L 28.203125 -25.546875 L 28.203125 -20.953125 Z M 23.671875 -31.453125 L 23.671875 -36.0625 L 28.203125 -36.0625 L 28.203125 -31.453125 Z M 23.671875 -36.703125 L 23.671875 -41.3125 L 28.203125 -41.3125 L 28.203125 -36.703125 Z M 18.46875 -15.75 L 18.46875 -20.359375 L 23.015625 -20.359375 L 23.015625 -15.75 Z M 18.46875 -20.953125 L 18.46875 -25.546875 L 23.015625 -25.546875 L 23.015625 -20.953125 Z M 18.46875 -31.453125 L 18.46875 -36.0625 L 23.015625 -36.0625 L 23.015625 -31.453125 Z M 18.46875 -36.703125 L 18.46875 -41.3125 L 23.015625 -41.3125 L 23.015625 -36.703125 Z M 13.28125 0 L 13.28125 -4.609375 L 17.828125 -4.609375 L 17.828125 0 Z M 13.28125 -5.25 L 13.28125 -9.859375 L 17.828125 -9.859375 L 17.828125 -5.25 Z M 13.28125 -10.5 L 13.28125 -15.109375 L 17.828125 -15.109375 L 17.828125 -10.5 Z M 13.28125 -15.75 L 13.28125 -20.359375 L 17.828125 -20.359375 L 17.828125 -15.75 Z M 13.28125 -20.953125 L 13.28125 -25.546875 L 17.828125 -25.546875 L 17.828125 -20.953125 Z M 13.28125 -26.203125 L 13.28125 -30.8125 L 17.828125 -30.8125 L 17.828125 -26.203125 Z M 13.28125 -31.453125 L 13.28125 -36.0625 L 17.828125 -36.0625 L 17.828125 -31.453125 Z M 13.28125 -36.703125 L 13.28125 -41.3125 L 17.828125 -41.3125 L 17.828125 -36.703125 Z M 8.140625 0 L 8.140625 -4.609375 L 12.6875 -4.609375 L 12.6875 0 Z M 8.140625 -5.25 L 8.140625 -9.859375 L 12.6875 -9.859375 L 12.6875 -5.25 Z M 8.140625 -10.5 L 8.140625 -15.109375 L 12.6875 -15.109375 L 12.6875 -10.5 Z M 8.140625 -15.75 L 8.140625 -20.359375 L 12.6875 -20.359375 L 12.6875 -15.75 Z M 8.140625 -20.953125 L 8.140625 -25.546875 L 12.6875 -25.546875 L 12.6875 -20.953125 Z M 8.140625 -26.203125 L 8.140625 -30.8125 L 12.6875 -30.8125 L 12.6875 -26.203125 Z M 8.140625 -31.453125 L 8.140625 -36.0625 L 12.6875 -36.0625 L 12.6875 -31.453125 Z M 8.140625 -36.703125 L 8.140625 -41.3125 L 12.6875 -41.3125 L 12.6875 -36.703125 Z M 2.953125 -36.703125 L 2.953125 -41.3125 L 7.5 -41.3125 L 7.5 -36.703125 Z M 2.953125 -36.703125 "/></g></g></g><g fill="#302828" fill-opacity="1"><g transform="translate(373.680318, 108.479012)"><g><path d="M 30.453125 0 L 30.453125 -4.609375 L 35 -4.609375 L 35 0 Z M 30.453125 -5.25 L 30.453125 -9.859375 L 35 -9.859375 L 35 -5.25 Z M 30.453125 -31.453125 L 30.453125 -36.0625 L 35 -36.0625 L 35 -31.453125 Z M 30.453125 -36.703125 L 30.453125 -41.3125 L 35 -41.3125 L 35 -36.703125 Z M 25.3125 0 L 25.3125 -4.609375 L 29.859375 -4.609375 L 29.859375 0 Z M 25.3125 -5.25 L 25.3125 -9.859375 L 29.859375 -9.859375 L 29.859375 -5.25 Z M 25.3125 -31.453125 L 25.3125 -36.0625 L 29.859375 -36.0625 L 29.859375 -31.453125 Z M 25.3125 -36.703125 L 25.3125 -41.3125 L 29.859375 -41.3125 L 29.859375 -36.703125 Z M 20.125 0 L 20.125 -4.609375 L 24.671875 -4.609375 L 24.671875 0 Z M 20.125 -5.25 L 20.125 -9.859375 L 24.671875 -9.859375 L 24.671875 -5.25 Z M 20.125 -10.5 L 20.125 -15.109375 L 24.671875 -15.109375 L 24.671875 -10.5 Z M 20.125 -15.75 L 20.125 -20.359375 L 24.671875 -20.359375 L 24.671875 -15.75 Z M 20.125 -20.953125 L 20.125 -25.546875 L 24.671875 -25.546875 L 24.671875 -20.953125 Z M 20.125 -26.203125 L 20.125 -30.8125 L 24.671875 -30.8125 L 24.671875 -26.203125 Z M 20.125 -31.453125 L 20.125 -36.0625 L 24.671875 -36.0625 L 24.671875 -31.453125 Z M 20.125 -36.703125 L 20.125 -41.3125 L 24.671875 -41.3125 L 24.671875 -36.703125 Z M 14.9375 0 L 14.9375 -4.609375 L 19.46875 -4.609375 L 19.46875 0 Z M 14.9375 -5.25 L 14.9375 -9.859375 L 19.46875 -9.859375 L 19.46875 -5.25 Z M 14.9375 -10.5 L 14.9375 -15.109375 L 19.46875 -15.109375 L 19.46875 -10.5 Z M 14.9375 -15.75 L 14.9375 -20.359375 L 19.46875 -20.359375 L 19.46875 -15.75 Z M 14.9375 -20.953125 L 14.9375 -25.546875 L 19.46875 -25.546875 L 19.46875 -20.953125 Z M 14.9375 -26.203125 L 14.9375 -30.8125 L 19.46875 -30.8125 L 19.46875 -26.203125 Z M 14.9375 -31.453125 L 14.9375 -36.0625 L 19.46875 -36.0625 L 19.46875 -31.453125 Z M 14.9375 -36.703125 L 14.9375 -41.3125 L 19.46875 -41.3125 L 19.46875 -36.703125 Z M 9.796875 0 L 9.796875 -4.609375 L 14.34375 -4.609375 L 14.34375 0 Z M 9.796875 -5.25 L 9.796875 -9.859375 L 14.34375 -9.859375 L 14.34375 -5.25 Z M 9.796875 -31.453125 L 9.796875 -36.0625 L 14.34375 -36.0625 L 14.34375 -31.453125 Z M 9.796875 -36.703125 L 9.796875 -41.3125 L 14.34375 -41.3125 L 14.34375 -36.703125 Z M 4.609375 0 L 4.609375 -4.609375 L 9.140625 -4.609375 L 9.140625 0 Z M 4.609375 -5.25 L 4.609375 -9.859375 L 9.140625 -9.859375 L 9.140625 -5.25 Z M 4.609375 -31.453125 L 4.609375 -36.0625 L 9.140625 -36.0625 L 9.140625 -31.453125 Z M 4.609375 -36.703125 L 4.609375 -41.3125 L 9.140625 -41.3125 L 9.140625 -36.703125 Z M 4.609375 -36.703125 "/></g></g></g><g fill="#302828" fill-opacity="1"><g transform="translate(412.803242, 108.479012)"><g><path d="M 41.140625 0 L 41.140625 -4.609375 L 45.671875 -4.609375 L 45.671875 0 Z M 46.265625 0 L 46.265625 -4.609375 L 50.8125 -4.609375 L 50.8125 0 Z M 41.140625 -5.25 L 41.140625 -9.859375 L 45.671875 -9.859375 L 45.671875 -5.25 Z M 41.140625 -31.453125 L 41.140625 -36.0625 L 45.671875 -36.0625 L 45.671875 -31.453125 Z M 41.140625 -36.703125 L 41.140625 -41.3125 L 45.671875 -41.3125 L 45.671875 -36.703125 Z M 46.265625 -36.703125 L 46.265625 -41.3125 L 50.8125 -41.3125 L 50.8125 -36.703125 Z M 35.9375 -5.25 L 35.9375 -9.859375 L 40.484375 -9.859375 L 40.484375 -5.25 Z M 35.9375 -10.5 L 35.9375 -15.109375 L 40.484375 -15.109375 L 40.484375 -10.5 Z M 35.9375 -26.203125 L 35.9375 -30.8125 L 40.484375 -30.8125 L 40.484375 -26.203125 Z M 35.9375 -31.453125 L 35.9375 -36.0625 L 40.484375 -36.0625 L 40.484375 -31.453125 Z M 30.75 -10.5 L 30.75 -15.109375 L 35.296875 -15.109375 L 35.296875 -10.5 Z M 30.75 -15.75 L 30.75 -20.359375 L 35.296875 -20.359375 L 35.296875 -15.75 Z M 30.75 -20.953125 L 30.75 -25.546875 L 35.296875 -25.546875 L 35.296875 -20.953125 Z M 30.75 -26.203125 L 30.75 -30.8125 L 35.296875 -30.8125 L 35.296875 -26.203125 Z M 25.609375 -15.75 L 25.609375 -20.359375 L 30.15625 -20.359375 L 30.15625 -15.75 Z M 25.609375 -20.953125 L 25.609375 -25.546875 L 30.15625 -25.546875 L 30.15625 -20.953125 Z M 20.421875 -10.5 L 20.421875 -15.109375 L 24.96875 -15.109375 L 24.96875 -10.5 Z M 20.421875 -15.75 L 20.421875 -20.359375 L 24.96875 -20.359375 L 24.96875 -15.75 Z M 20.421875 -20.953125 L 20.421875 -25.546875 L 24.96875 -25.546875 L 24.96875 -20.953125 Z M 20.421875 -26.203125 L 20.421875 -30.8125 L 24.96875 -30.8125 L 24.96875 -26.203125 Z M 15.21875 -5.25 L 15.21875 -9.859375 L 19.765625 -9.859375 L 19.765625 -5.25 Z M 15.21875 -10.5 L 15.21875 -15.109375 L 19.765625 -15.109375 L 19.765625 -10.5 Z M 15.21875 -26.203125 L 15.21875 -30.8125 L 19.765625 -30.8125 L 19.765625 -26.203125 Z M 15.21875 -31.453125 L 15.21875 -36.0625 L 19.765625 -36.0625 L 19.765625 -31.453125 Z M 10.09375 0 L 10.09375 -4.609375 L 14.578125 -4.609375 L 14.578125 0 Z M 5.1875 0 L 5.1875 -4.609375 L 9.734375 -4.609375 L 9.734375 0 Z M 10.09375 -5.25 L 10.09375 -9.859375 L 14.578125 -9.859375 L 14.578125 -5.25 Z M 10.09375 -31.453125 L 10.09375 -36.0625 L 14.578125 -36.0625 L 14.578125 -31.453125 Z M 10.09375 -36.703125 L 10.09375 -41.3125 L 14.578125 -41.3125 L 14.578125 -36.703125 Z M 5.078125 -36.703125 L 5.078125 -41.3125 L 9.625 -41.3125 L 9.625 -36.703125 Z M 5.078125 -36.703125 "/></g></g></g><g fill="#302828" fill-opacity="1"><g transform="translate(468.15361, 108.479012)"><g><path d="M 25.4375 0 L 25.4375 -4.609375 L 29.984375 -4.609375 L 29.984375 0 Z M 25.4375 -5.25 L 25.4375 -9.859375 L 29.984375 -9.859375 L 29.984375 -5.25 Z M 25.4375 -15.75 L 25.4375 -20.359375 L 29.984375 -20.359375 L 29.984375 -15.75 Z M 25.4375 -20.953125 L 25.4375 -25.546875 L 29.984375 -25.546875 L 29.984375 -20.953125 Z M 25.4375 -31.453125 L 25.4375 -36.0625 L 29.984375 -36.0625 L 29.984375 -31.453125 Z M 25.4375 -36.703125 L 25.4375 -41.3125 L 29.984375 -41.3125 L 29.984375 -36.703125 Z M 30.5625 0 L 30.5625 -4.609375 L 35.109375 -4.609375 L 35.109375 0 Z M 30.5625 -5.25 L 30.5625 -9.859375 L 35.109375 -9.859375 L 35.109375 -5.25 Z M 30.5625 -15.75 L 30.5625 -20.359375 L 35.109375 -20.359375 L 35.109375 -15.75 Z M 30.5625 -20.953125 L 30.5625 -25.546875 L 35.109375 -25.546875 L 35.109375 -20.953125 Z M 30.5625 -31.453125 L 30.5625 -36.0625 L 35.109375 -36.0625 L 35.109375 -31.453125 Z M 30.5625 -36.703125 L 30.5625 -41.3125 L 35.109375 -41.3125 L 35.109375 -36.703125 Z M 20.25 0 L 20.25 -4.609375 L 24.78125 -4.609375 L 24.78125 0 Z M 20.25 -5.25 L 20.25 -9.859375 L 24.78125 -9.859375 L 24.78125 -5.25 Z M 20.25 -15.75 L 20.25 -20.359375 L 24.78125 -20.359375 L 24.78125 -15.75 Z M 20.25 -20.953125 L 20.25 -25.546875 L 24.78125 -25.546875 L 24.78125 -20.953125 Z M 20.25 -31.453125 L 20.25 -36.0625 L 24.78125 -36.0625 L 24.78125 -31.453125 Z M 20.25 -36.703125 L 20.25 -41.3125 L 24.78125 -41.3125 L 24.78125 -36.703125 Z M 15.046875 0 L 15.046875 -4.609375 L 19.59375 -4.609375 L 19.59375 0 Z M 15.046875 -5.25 L 15.046875 -9.859375 L 19.59375 -9.859375 L 19.59375 -5.25 Z M 15.046875 -15.75 L 15.046875 -20.359375 L 19.59375 -20.359375 L 19.59375 -15.75 Z M 15.046875 -20.953125 L 15.046875 -25.546875 L 19.59375 -25.546875 L 19.59375 -20.953125 Z M 15.046875 -31.453125 L 15.046875 -36.0625 L 19.59375 -36.0625 L 19.59375 -31.453125 Z M 15.046875 -36.703125 L 15.046875 -41.3125 L 19.59375 -41.3125 L 19.59375 -36.703125 Z M 9.921875 0 L 9.921875 -4.609375 L 14.453125 -4.609375 L 14.453125 0 Z M 9.921875 -5.25 L 9.921875 -9.859375 L 14.453125 -9.859375 L 14.453125 -5.25 Z M 9.921875 -10.5 L 9.921875 -15.109375 L 14.453125 -15.109375 L 14.453125 -10.5 Z M 9.921875 -15.75 L 9.921875 -20.359375 L 14.453125 -20.359375 L 14.453125 -15.75 Z M 9.921875 -20.953125 L 9.921875 -25.546875 L 14.453125 -25.546875 L 14.453125 -20.953125 Z M 9.921875 -26.203125 L 9.921875 -30.8125 L 14.453125 -30.8125 L 14.453125 -26.203125 Z M 9.921875 -31.453125 L 9.921875 -36.0625 L 14.453125 -36.0625 L 14.453125 -31.453125 Z M 9.921875 -36.703125 L 9.921875 -41.3125 L 14.453125 -41.3125 L 14.453125 -36.703125 Z M 4.71875 -5.25 L 4.71875 -9.859375 L 9.265625 -9.859375 L 9.265625 -5.25 Z M 4.71875 -10.5 L 4.71875 -15.109375 L 9.265625 -15.109375 L 9.265625 -10.5 Z M 4.71875 -15.75 L 4.71875 -20.359375 L 9.265625 -20.359375 L 9.265625 -15.75 Z M 4.71875 -20.953125 L 4.71875 -25.546875 L 9.265625 -25.546875 L 9.265625 -20.953125 Z M 4.71875 -26.203125 L 4.71875 -30.8125 L 9.265625 -30.8125 L 9.265625 -26.203125 Z M 4.71875 -31.453125 L 4.71875 -36.0625 L 9.265625 -36.0625 L 9.265625 -31.453125 Z M 4.71875 -31.453125 "/></g></g></g><g fill="#302828" fill-opacity="1"><g transform="translate(507.571569, 108.479012)"><g><path d="M 25.203125 0 L 25.203125 -4.609375 L 29.75 -4.609375 L 29.75 0 Z M 25.203125 -5.25 L 25.203125 -9.859375 L 29.75 -9.859375 L 29.75 -5.25 Z M 30.21875 0 L 30.21875 -4.609375 L 34.765625 -4.609375 L 34.765625 0 Z M 30.21875 -5.25 L 30.21875 -9.859375 L 34.765625 -9.859375 L 34.765625 -5.25 Z M 20 0 L 20 -4.609375 L 24.546875 -4.609375 L 24.546875 0 Z M 20 -5.25 L 20 -9.859375 L 24.546875 -9.859375 L 24.546875 -5.25 Z M 14.8125 0 L 14.8125 -4.609375 L 19.359375 -4.609375 L 19.359375 0 Z M 14.8125 -5.25 L 14.8125 -9.859375 L 19.359375 -9.859375 L 19.359375 -5.25 Z M 9.671875 0 L 9.671875 -4.609375 L 14.21875 -4.609375 L 14.21875 0 Z M 9.671875 -5.25 L 9.671875 -9.859375 L 14.21875 -9.859375 L 14.21875 -5.25 Z M 9.671875 -10.5 L 9.671875 -15.109375 L 14.21875 -15.109375 L 14.21875 -10.5 Z M 9.671875 -15.75 L 9.671875 -20.359375 L 14.21875 -20.359375 L 14.21875 -15.75 Z M 9.671875 -20.953125 L 9.671875 -25.546875 L 14.21875 -25.546875 L 14.21875 -20.953125 Z M 9.671875 -26.203125 L 9.671875 -30.8125 L 14.21875 -30.8125 L 14.21875 -26.203125 Z M 9.671875 -31.453125 L 9.671875 -36.0625 L 14.21875 -36.0625 L 14.21875 -31.453125 Z M 9.671875 -36.703125 L 9.671875 -41.3125 L 14.21875 -41.3125 L 14.21875 -36.703125 Z M 4.484375 0 L 4.484375 -4.609375 L 9.03125 -4.609375 L 9.03125 0 Z M 4.484375 -5.25 L 4.484375 -9.859375 L 9.03125 -9.859375 L 9.03125 -5.25 Z M 4.484375 -10.5 L 4.484375 -15.109375 L 9.03125 -15.109375 L 9.03125 -10.5 Z M 4.484375 -15.75 L 4.484375 -20.359375 L 9.03125 -20.359375 L 9.03125 -15.75 Z M 4.484375 -20.953125 L 4.484375 -25.546875 L 9.03125 -25.546875 L 9.03125 -20.953125 Z M 4.484375 -26.203125 L 4.484375 -30.8125 L 9.03125 -30.8125 L 9.03125 -26.203125 Z M 4.484375 -31.453125 L 4.484375 -36.0625 L 9.03125 -36.0625 L 9.03125 -31.453125 Z M 4.484375 -36.703125 L 4.484375 -41.3125 L 9.03125 -41.3125 L 9.03125 -36.703125 Z M 4.484375 -36.703125 "/></g></g></g><g fill="#302828" fill-opacity="1"><g transform="translate(546.104375, 108.479012)"><g><path d="M 25.203125 -5.25 L 25.203125 -9.859375 L 29.75 -9.859375 L 29.75 -5.25 Z M 25.203125 -10.5 L 25.203125 -15.109375 L 29.75 -15.109375 L 29.75 -10.5 Z M 25.203125 -15.75 L 25.203125 -20.359375 L 29.75 -20.359375 L 29.75 -15.75 Z M 25.203125 -20.953125 L 25.203125 -25.546875 L 29.75 -25.546875 L 29.75 -20.953125 Z M 25.203125 -31.453125 L 25.203125 -36.0625 L 29.75 -36.0625 L 29.75 -31.453125 Z M 25.203125 -36.703125 L 25.203125 -41.3125 L 29.75 -41.3125 L 29.75 -36.703125 Z M 20 0 L 20 -4.609375 L 24.546875 -4.609375 L 24.546875 0 Z M 20 -5.25 L 20 -9.859375 L 24.546875 -9.859375 L 24.546875 -5.25 Z M 20 -10.5 L 20 -15.109375 L 24.546875 -15.109375 L 24.546875 -10.5 Z M 20 -15.75 L 20 -20.359375 L 24.546875 -20.359375 L 24.546875 -15.75 Z M 20 -20.953125 L 20 -25.546875 L 24.546875 -25.546875 L 24.546875 -20.953125 Z M 20 -31.453125 L 20 -36.0625 L 24.546875 -36.0625 L 24.546875 -31.453125 Z M 20 -36.703125 L 20 -41.3125 L 24.546875 -41.3125 L 24.546875 -36.703125 Z M 14.8125 0 L 14.8125 -4.609375 L 19.359375 -4.609375 L 19.359375 0 Z M 14.8125 -5.25 L 14.8125 -9.859375 L 19.359375 -9.859375 L 19.359375 -5.25 Z M 14.8125 -15.75 L 14.8125 -20.359375 L 19.359375 -20.359375 L 19.359375 -15.75 Z M 14.8125 -20.953125 L 14.8125 -25.546875 L 19.359375 -25.546875 L 19.359375 -20.953125 Z M 14.8125 -31.453125 L 14.8125 -36.0625 L 19.359375 -36.0625 L 19.359375 -31.453125 Z M 14.8125 -36.703125 L 14.8125 -41.3125 L 19.359375 -41.3125 L 19.359375 -36.703125 Z M 9.671875 0 L 9.671875 -4.609375 L 14.21875 -4.609375 L 14.21875 0 Z M 9.671875 -5.25 L 9.671875 -9.859375 L 14.21875 -9.859375 L 14.21875 -5.25 Z M 9.671875 -15.75 L 9.671875 -20.359375 L 14.21875 -20.359375 L 14.21875 -15.75 Z M 9.671875 -20.953125 L 9.671875 -25.546875 L 14.21875 -25.546875 L 14.21875 -20.953125 Z M 9.671875 -26.203125 L 9.671875 -30.8125 L 14.21875 -30.8125 L 14.21875 -26.203125 Z M 9.671875 -31.453125 L 9.671875 -36.0625 L 14.21875 -36.0625 L 14.21875 -31.453125 Z M 9.671875 -36.703125 L 9.671875 -41.3125 L 14.21875 -41.3125 L 14.21875 -36.703125 Z M 4.484375 0 L 4.484375 -4.609375 L 9.03125 -4.609375 L 9.03125 0 Z M 4.484375 -5.25 L 4.484375 -9.859375 L 9.03125 -9.859375 L 9.03125 -5.25 Z M 4.484375 -15.75 L 4.484375 -20.359375 L 9.03125 -20.359375 L 9.03125 -15.75 Z M 4.484375 -20.953125 L 4.484375 -25.546875 L 9.03125 -25.546875 L 9.03125 -20.953125 Z M 4.484375 -26.203125 L 4.484375 -30.8125 L 9.03125 -30.8125 L 9.03125 -26.203125 Z M 4.484375 -31.453125 L 4.484375 -36.0625 L 9.03125 -36.0625 L 9.03125 -31.453125 Z M 4.484375 -31.453125 "/></g></g></g><g fill="#302828" fill-opacity="1"><g transform="translate(580.803707, 108.479012)"><g/></g></g></svg>